<svg width="1024" height="951" viewBox="0 0 1024 951" fill="none" xmlns="http://www.w3.org/2000/svg">
<path id="logo" opacity="0.2" fill-rule="evenodd" clip-rule="evenodd" d="M814.401 12.0508C808.4 1.8531 795.105 -1.64326 784.715 4.24702L428.97 205.824C420.874 210.415 416.67 219.581 418.548 228.574L539.296 807.706C539.309 807.769 539.292 807.834 539.249 807.881L521.296 827.752C491.056 861.228 465.437 879.363 416.742 879.363C362.143 879.363 336.508 851.117 295.917 801.191C247.439 741.571 187.119 667.376 40.4578 667.376H36.8312C16.8287 667.376 0.613281 683.291 0.613281 702.922C0.613281 722.554 16.8287 738.469 36.8312 738.469H40.4578C152.241 738.469 194.524 790.473 239.295 845.533C279.284 894.719 324.609 950.464 416.742 950.464C496.279 950.464 540.047 914.153 575.495 874.922L706.245 730.216C706.245 730.208 1017.23 386.013 1017.23 386.013C1023.43 379.146 1024.46 369.153 1019.79 361.2L814.401 12.0508Z" stroke="#FF8700"/>
</svg>
