<svg width="36" height="36" viewBox="0 0 36 36" fill="none" xmlns="http://www.w3.org/2000/svg">
<circle cx="17.6694" cy="17.8894" r="17.1106" fill="#FF7C01"/>
<circle cx="17.6694" cy="17.8894" r="17.1106" fill="url(#paint0_linear)"/>
<circle cx="17.6694" cy="17.8894" r="17.1106" stroke="#FF7101" stroke-dasharray="3 3"/>
<path fill-rule="evenodd" clip-rule="evenodd" d="M22.3233 9.22655C22.2112 9.03611 21.963 8.97081 21.7689 9.08081L15.1253 12.8453C14.9742 12.931 14.8956 13.1022 14.9307 13.2701L17.1653 23.9879C17.1784 24.0504 17.1608 24.1154 17.118 24.1628L16.8495 24.4599C16.2848 25.085 15.8064 25.4237 14.897 25.4237C13.8773 25.4237 13.3986 24.8962 12.6406 23.9638C11.7352 22.8504 10.6087 21.4648 7.86983 21.4648H7.80211C7.42856 21.4648 7.12573 21.762 7.12573 22.1287C7.12573 22.4953 7.42856 22.7925 7.80211 22.7925H7.86983C9.95739 22.7925 10.747 23.7637 11.5831 24.7919C12.3299 25.7105 13.1764 26.7515 14.897 26.7515C16.3823 26.7515 17.1997 26.0734 17.8617 25.3408L20.3035 22.6384C20.3035 22.6382 26.1111 16.2103 26.1111 16.2103C26.2269 16.0821 26.2463 15.8955 26.1589 15.7469L22.3233 9.22655Z" fill="white"/>
<defs>
<linearGradient id="paint0_linear" x1="25.3549" y1="2.73365" x2="13.624" y2="36.7817" gradientUnits="userSpaceOnUse">
<stop stop-color="#FF8801"/>
<stop offset="1" stop-color="#FF6801"/>
</linearGradient>
</defs>
</svg>
